<svg height="457pt" viewBox="-96 0 457 457.14286" width="457pt" xmlns="http://www.w3.org/2000/svg"><path d="m256.070312 0h-246.855468c-5.050782 0-9.1445315 4.089844-9.1445315 9.144531v438.855469c0 3.707031 2.2343755 7.035156 5.6562495 8.457031 3.429688 1.398438 7.363282.613281 9.96875-2.011719l116.949219-117.640624 116.945313 117.640624c1.75 1.761719 4.09375 2.699219 6.480468 2.699219 1.175782 0 2.359376-.226562 3.488282-.6875 3.421875-1.421875 5.65625-4.75 5.65625-8.457031v-438.855469c0-5.054687-4.09375-9.144531-9.144532-9.144531zm-9.140624 425.832031-107.804688-108.4375c-1.714844-1.726562-4.050781-2.699219-6.480469-2.699219-2.433593 0-4.769531.972657-6.484375 2.699219l-107.804687 108.4375v-407.546875h228.574219zm0 0"/></svg>